<svg xmlns="http://www.w3.org/2000/svg" width="211.67mm" height="211.67mm" viewBox="0 0 600 600"><path d="M167.13,374.25s-.67,34.06-1,52.83,6.38,53.89.4,77.7c-1.17,11.14-6.2,9.64-10.65,12.42-4.88,3-11.78,12.29-7.82,15,7.86,5.45,32.95,1.16,34.78-.17,12.82-14.42,6.57-62.94,9.44-83.53,2.41-17.16,13.53-67.68,13.53-67.68" fill="#fff" stroke="#00ad00" stroke-linecap="round" stroke-linejoin="round" stroke-width="8"/><path d="M457.41,450.76c-3,41.52-15,63.66-16.32,63.18-17.63,4.4-20.16,4.28-29,3.37-11.38-1.18,2.54-18.06,14-20.34,2.28-7.74,19.18-54.28,2-60.69-20.59-7.41-7.42-12.53-18.21-28.62C381.2,365,332,383.75,332,383.75" fill="#fff" stroke="#00ad00" stroke-linecap="round" stroke-linejoin="round" stroke-width="8"/><path d="M246.4,269.85c-1.82-17.64-2.82-.65-6.49-18.86-3.46-17.28-4.63-59.4-6.07-76.23,1.34-10.74-13.53-36.06-29.38-46.26-14.06-9-19.08-11.58-38.58-12.07s-49.63,16.87-64.6,28.06C85.11,156.82,31.2,159.32,17.45,160.7,10.84,161.36,7.81,172.43,9,179c2.41,17.37,24.58,45.89,39.64,54.93,6.11,3.63,16.25.32,33.18-2.44,21-3.41,49.23-27.8,49.26-25.85.44,24.66-37.45,37.11-36.09,37.56a68.73,68.73,0,0,0,16.13,3.64c8.41.69,11.9.16,20.45.26,18.85.34,16.11,42.72,14.4,46.54-23.92,53.72,14,104.89,19.35,109C188.9,420.73,181.77,414.45,201,426c16.27,20.8,82.66,21.17,116.9,15.78,82.16-13,59.89-7.09,94.64-18.49,6.76-2.22,99,55.21,92.53,46.32-19.89-27.44-32-98.53-15-121.37,65.91-24.8,104.69-69.9,101.8-110.94-.49-6.94-28.5,33.95-23.49,23.49,23.95-50-7.64-85.64-32.63-111.59-2-2.13,17,43.63,10.44,52.21-1.46,1.94,2-5.22-13.7-22.84-11.53-13-18.35-27.34-71.13-47.64-22.68-8.72,7.83,9.79,21.53,24.8,1.13,1.23,9.32,16.18,8.53,15.49-5.64-4.91-25.49-22-54.86-16.15-38.07,7.62-61.68,11.52-25.45,21.54,12.31,3.4,56.62,12.22,81.9,30.06,14.22,10,49.84,45.51,14,90.66-15,18.93-40.71,4.56-54.23-1.45-17.64-7.84-33.59-13.07-109.83-3.55-43.94,5.49-67.26-4.22-88.61-15.79" fill="#fff" stroke="#00ad00" stroke-linecap="round" stroke-miterlimit="10" stroke-width="8"/><path d="M127.93,314.17l1.93-2.1,7.7-8.44" fill="none" stroke="#00ad00" stroke-miterlimit="10" stroke-width="8"/><path d="M492,441.86c3.32,9,22.37,36.66,17.57,51.4-11.77,36.11-18,59.22-19.16,58.61-18.83,2.6-26,3.25-35.13,1.3-11.71-2.51,2.12-19,14.29-20.13,8.14-19.55,18.86-42.65,6.55-48.8-20.58-10-59.58-34.71-69-52.66-25-47.65-22.19-41.76-22.19-41.76" fill="#fff" stroke="#00ad00" stroke-linecap="square" stroke-linejoin="round" stroke-width="8"/><path d="M198.33,397.78S201.27,430,200.94,450s4.79,56-1.58,81.36c-1.25,11.85-9.25,10.14-14,13.1-5.2,3.24-11.3,11.77-7.08,14.69,8.35,5.8,35,1.24,37-.17,13.63-15.35,9.08-66.75,10-88.88,1-21.59,11.49-65.13,11.49-65.13" fill="#fff" stroke="#00ad00" stroke-linecap="round" stroke-linejoin="round" stroke-width="8"/><ellipse cx="119.29" cy="324.12" rx="11.43" ry="6.63" transform="translate(-224.5 291.03) rotate(-64.3)" fill="#00ad00" stroke="#00ad00" stroke-miterlimit="10" stroke-width="8"/><path d="M21.51,192.93c3-2.57,44.58-25.73,5.79-33.72-3.91-.72-17.42-3.66-19.32-.27-2.31,4.66-6.4,14.71-4.89,21.16C5.23,189.45,18.54,195.51,21.51,192.93Z" fill="none"/><ellipse cx="108.71" cy="170.68" rx="8.79" ry="4.83" transform="matrix(0.13, -0.99, 0.99, 0.13, -74.64, 256.3)" fill="none"/><ellipse cx="84.56" cy="158.32" rx="7.07" ry="3.87" transform="translate(-84.89 217.5) rotate(-81.14)" fill="none"/><path d="M138.56,281.62c2.69,10.37-7.88,23.14-4.41,26,10,8,117.25-10.48,128.26-33.67,4.63-8.14-21.53-39.4-19.07-27.64C231.71,265.28,167.75,278.34,138.56,281.62Z" fill="#e2e602" stroke="#e2e602" stroke-miterlimit="10"/><path d="M176.4,139.84c8.21-8.27,8.63-5.24,14.29-3.25,17.22,6,20,15,27.27,23.38,12.77,15,30.1,29,29.91,48.82-.2,27.78-31.13,47-42.62,43.74-25.3-7.12,4.27-53.6-20.4-70.48-5.2-4.14-15,6.75-14.29-2" fill="#fff" stroke="#00ad00" stroke-linecap="round" stroke-linejoin="round" stroke-width="8"/><path d="M166.2,237.81c-4.41,4.68-42.93,9.75-42.93,9.75" fill="none" stroke="#00ad00" stroke-linecap="round" stroke-linejoin="round" stroke-width="8"/><path d="M25,193.91c3-2.88,46-29.63,4.37-36.08-4.18-.56-18.68-3-20.52.72-2.2,5.06-6,15.94-4.08,22.71C7.48,191.08,21.92,196.8,25,193.91Z" fill="#003b26"/><ellipse cx="127.83" cy="166.08" rx="9.34" ry="5.13" transform="translate(-80.97 184.15) rotate(-57.36)" fill="#003b26"/><ellipse cx="100.46" cy="153.02" rx="7.51" ry="4.11" transform="matrix(0.54, -0.84, 0.84, 0.54, -82.58, 155.09)" fill="#003b26"/><path d="M434.91,210.25c6.92,1.92,31.85,6.88,46.07,16.91,8,5.64,28,25.6,7.89,51" fill="none" stroke="#003b26" stroke-linecap="round" stroke-miterlimit="10" stroke-width="3"/><path d="M443.9,225.69c5.19,1.44,23.88,5.16,34.55,12.68,6,4.23,21,19.2,5.92,38.25" fill="none" stroke="#003b26" stroke-linecap="round" stroke-miterlimit="10" stroke-width="3"/><path d="M579.65,136.19c-2-2.13,9.94,40.48,3.42,49.06-1.47,1.94,2-5.22-13.71-22.84-11.52-13-18.34-27.34-71.13-47.64-22.67-8.72,7.83,9.79,21.54,24.8" fill="#fff" stroke="#003b26" stroke-linecap="round" stroke-miterlimit="10" stroke-width="3"/><path d="M543.52,89.7c-3.09-2,33.22,48.16,27.77,60.48-1.23,2.78-2.21-6.42-23.26-23.82-16.71-13.82-30.21-23-100.26-32.41-30.1-4.06,6.08,6.16,27.08,20.46" fill="none" stroke="#003b26" stroke-linecap="round" stroke-miterlimit="10" stroke-width="3"/></svg>